<?xml version="1.0" encoding="UTF-8" standalone="no"?>
<!DOCTYPE svg PUBLIC "-//W3C//DTD SVG 1.1//EN"
 "http://www.w3.org/Graphics/SVG/1.1/DTD/svg11.dtd">
<!-- Generated by graphviz version 2.40.1 (20161225.0304)
 -->
<!-- Title: dependencies Pages: 1 -->
<svg width="504pt" height="284pt"
 viewBox="0.00 0.00 504.00 284.00" xmlns="http://www.w3.org/2000/svg" xmlns:xlink="http://www.w3.org/1999/xlink">
<g id="graph0" class="graph" transform="scale(1 1) rotate(0) translate(4 280)">
<title>dependencies</title>
<polygon fill="#ffffff" stroke="transparent" points="-4,4 -4,-280 500,-280 500,4 -4,4"/>
<text text-anchor="start" x="227.0091" y="-42.4" font-family="sans-serif" font-weight="bold" font-size="14.00" fill="#000000">Legend</text>
<polygon fill="#ffffb3" stroke="transparent" points="14,-10 14,-30 34,-30 34,-10 14,-10"/>
<text text-anchor="start" x="37.629" y="-15.4" font-family="sans-serif" font-size="14.00" fill="#000000"> &#160;Declarations</text>
<polygon fill="#8dd3c7" stroke="transparent" points="127,-10 127,-30 147,-30 147,-10 127,-10"/>
<text text-anchor="start" x="150.7251" y="-15.4" font-family="sans-serif" font-size="14.00" fill="#000000"> &#160;Module</text>
<polygon fill="#80b1d3" stroke="transparent" points="213,-10 213,-30 233,-30 233,-10 213,-10"/>
<text text-anchor="start" x="236.7812" y="-15.4" font-family="sans-serif" font-size="14.00" fill="#000000"> &#160;Bootstrap</text>
<polygon fill="#fdb462" stroke="transparent" points="310,-10 310,-30 330,-30 330,-10 310,-10"/>
<text text-anchor="start" x="333.6732" y="-15.4" font-family="sans-serif" font-size="14.00" fill="#000000"> &#160;Providers</text>
<polygon fill="#fb8072" stroke="transparent" points="406,-10 406,-30 426,-30 426,-10 406,-10"/>
<text text-anchor="start" x="429.7258" y="-15.4" font-family="sans-serif" font-size="14.00" fill="#000000"> &#160;Exports</text>
<g id="clust1" class="cluster">
<title>cluster_InitializerModule</title>
<polygon fill="none" stroke="#000000" stroke-dasharray="1,5" points="71,-70 71,-268 425,-268 425,-70 71,-70"/>
</g>
<g id="clust3" class="cluster">
<title>cluster_InitializerModule_imports</title>
<polygon fill="none" stroke="#000000" points="303,-78 303,-130 417,-130 417,-78 303,-78"/>
</g>
<g id="clust4" class="cluster">
<title>cluster_InitializerModule_exports</title>
<polygon fill="none" stroke="#000000" points="213,-208 213,-260 331,-260 331,-208 213,-208"/>
</g>
<g id="clust6" class="cluster">
<title>cluster_InitializerModule_providers</title>
<polygon fill="none" stroke="#000000" points="79,-78 79,-130 295,-130 295,-78 79,-78"/>
</g>
<!-- PlCoreModule -->
<g id="node1" class="node">
<title>PlCoreModule</title>
<polygon fill="#8dd3c7" stroke="#000000" points="409.4358,-122 406.4358,-126 385.4358,-126 382.4358,-122 310.5642,-122 310.5642,-86 409.4358,-86 409.4358,-122"/>
<text text-anchor="middle" x="360" y="-99.8" font-family="Times,serif" font-size="14.00" fill="#000000">PlCoreModule</text>
</g>
<!-- InitializerModule -->
<g id="node2" class="node">
<title>InitializerModule</title>
<polygon fill="#8dd3c7" stroke="#000000" points="328.9678,-187 325.9678,-191 304.9678,-191 301.9678,-187 215.0322,-187 215.0322,-151 328.9678,-151 328.9678,-187"/>
<text text-anchor="middle" x="272" y="-164.8" font-family="Times,serif" font-size="14.00" fill="#000000">InitializerModule</text>
</g>
<!-- PlCoreModule&#45;&gt;InitializerModule -->
<g id="edge1" class="edge">
<title>PlCoreModule&#45;&gt;InitializerModule</title>
<path fill="none" stroke="#000000" d="M319.8832,-122.1061C319.8832,-122.1061 319.8832,-140.991 319.8832,-140.991"/>
<polygon fill="#000000" stroke="#000000" points="316.3833,-140.9909 319.8832,-150.991 323.3833,-140.991 316.3833,-140.9909"/>
</g>
<!-- PlCoreModule  -->
<g id="node3" class="node">
<title>PlCoreModule </title>
<polygon fill="#fb8072" stroke="#000000" points="322.9348,-252 221.0652,-252 221.0652,-216 322.9348,-216 322.9348,-252"/>
<text text-anchor="middle" x="272" y="-229.8" font-family="Times,serif" font-size="14.00" fill="#000000">PlCoreModule </text>
</g>
<!-- InitializerModule&#45;&gt;PlCoreModule  -->
<g id="edge2" class="edge">
<title>InitializerModule&#45;&gt;PlCoreModule </title>
<path fill="none" stroke="#000000" stroke-dasharray="5,2" d="M272,-187.1061C272,-187.1061 272,-205.991 272,-205.991"/>
<polygon fill="#000000" stroke="#000000" points="268.5001,-205.9909 272,-215.991 275.5001,-205.991 268.5001,-205.9909"/>
</g>
<!-- HttpInterceptorService -->
<g id="node4" class="node">
<title>HttpInterceptorService</title>
<ellipse fill="#fdb462" stroke="#000000" cx="187" cy="-104" rx="99.5327" ry="18"/>
<text text-anchor="middle" x="187" y="-99.8" font-family="Times,serif" font-size="14.00" fill="#000000">HttpInterceptorService</text>
</g>
<!-- HttpInterceptorService&#45;&gt;InitializerModule -->
<g id="edge3" class="edge">
<title>HttpInterceptorService&#45;&gt;InitializerModule</title>
<path fill="none" stroke="#000000" d="M250.7662,-118.104C250.7662,-118.104 250.7662,-140.7209 250.7662,-140.7209"/>
<polygon fill="#000000" stroke="#000000" points="247.2663,-140.7209 250.7662,-150.7209 254.2663,-140.7209 247.2663,-140.7209"/>
</g>
</g>
</svg>
