<?xml version="1.0" encoding="UTF-8" standalone="no"?>
<!DOCTYPE svg PUBLIC "-//W3C//DTD SVG 1.1//EN"
 "http://www.w3.org/Graphics/SVG/1.1/DTD/svg11.dtd">
<!-- Generated by graphviz version 2.40.1 (20161225.0304)
 -->
<!-- Title: dependencies Pages: 1 -->
<svg width="870pt" height="284pt"
 viewBox="0.00 0.00 870.00 284.00" xmlns="http://www.w3.org/2000/svg" xmlns:xlink="http://www.w3.org/1999/xlink">
<g id="graph0" class="graph" transform="scale(1 1) rotate(0) translate(4 280)">
<title>dependencies</title>
<polygon fill="#ffffff" stroke="transparent" points="-4,4 -4,-280 866,-280 866,4 -4,4"/>
<text text-anchor="start" x="410.0091" y="-42.4" font-family="sans-serif" font-weight="bold" font-size="14.00" fill="#000000">Legend</text>
<polygon fill="#ffffb3" stroke="transparent" points="197,-10 197,-30 217,-30 217,-10 197,-10"/>
<text text-anchor="start" x="220.629" y="-15.4" font-family="sans-serif" font-size="14.00" fill="#000000"> &#160;Declarations</text>
<polygon fill="#8dd3c7" stroke="transparent" points="310,-10 310,-30 330,-30 330,-10 310,-10"/>
<text text-anchor="start" x="333.7251" y="-15.4" font-family="sans-serif" font-size="14.00" fill="#000000"> &#160;Module</text>
<polygon fill="#80b1d3" stroke="transparent" points="396,-10 396,-30 416,-30 416,-10 396,-10"/>
<text text-anchor="start" x="419.7812" y="-15.4" font-family="sans-serif" font-size="14.00" fill="#000000"> &#160;Bootstrap</text>
<polygon fill="#fdb462" stroke="transparent" points="493,-10 493,-30 513,-30 513,-10 493,-10"/>
<text text-anchor="start" x="516.6732" y="-15.4" font-family="sans-serif" font-size="14.00" fill="#000000"> &#160;Providers</text>
<polygon fill="#fb8072" stroke="transparent" points="589,-10 589,-30 609,-30 609,-10 589,-10"/>
<text text-anchor="start" x="612.7258" y="-15.4" font-family="sans-serif" font-size="14.00" fill="#000000"> &#160;Exports</text>
<g id="clust1" class="cluster">
<title>cluster_PlCoreModule</title>
<polygon fill="none" stroke="#000000" stroke-dasharray="1,5" points="8,-70 8,-268 854,-268 854,-70 8,-70"/>
</g>
<g id="clust2" class="cluster">
<title>cluster_PlCoreModule_declarations</title>
<polygon fill="none" stroke="#000000" points="582,-78 582,-130 846,-130 846,-78 582,-78"/>
</g>
<g id="clust6" class="cluster">
<title>cluster_PlCoreModule_exports</title>
<polygon fill="none" stroke="#000000" points="472,-208 472,-260 612,-260 612,-208 472,-208"/>
</g>
<g id="clust8" class="cluster">
<title>cluster_PlCoreModule_providers</title>
<polygon fill="none" stroke="#000000" points="16,-78 16,-130 574,-130 574,-78 16,-78"/>
</g>
<!-- AlertComponent -->
<g id="node1" class="node">
<title>AlertComponent</title>
<polygon fill="#ffffb3" stroke="#000000" points="838.0954,-122 727.9046,-122 727.9046,-86 838.0954,-86 838.0954,-122"/>
<text text-anchor="middle" x="783" y="-99.8" font-family="Times,serif" font-size="14.00" fill="#000000">AlertComponent</text>
</g>
<!-- PlCoreModule -->
<g id="node3" class="node">
<title>PlCoreModule</title>
<polygon fill="#8dd3c7" stroke="#000000" points="591.4358,-187 588.4358,-191 567.4358,-191 564.4358,-187 492.5642,-187 492.5642,-151 591.4358,-151 591.4358,-187"/>
<text text-anchor="middle" x="542" y="-164.8" font-family="Times,serif" font-size="14.00" fill="#000000">PlCoreModule</text>
</g>
<!-- AlertComponent&#45;&gt;PlCoreModule -->
<g id="edge1" class="edge">
<title>AlertComponent&#45;&gt;PlCoreModule</title>
<path fill="none" stroke="#000000" d="M783,-122.2843C783,-143.3211 783,-175 783,-175 783,-175 601.3515,-175 601.3515,-175"/>
<polygon fill="#000000" stroke="#000000" points="601.3515,-171.5001 591.3515,-175 601.3515,-178.5001 601.3515,-171.5001"/>
</g>
<!-- PlBaseComponent -->
<g id="node2" class="node">
<title>PlBaseComponent</title>
<polygon fill="#ffffb3" stroke="#000000" points="710.2162,-122 589.7838,-122 589.7838,-86 710.2162,-86 710.2162,-122"/>
<text text-anchor="middle" x="650" y="-99.8" font-family="Times,serif" font-size="14.00" fill="#000000">PlBaseComponent</text>
</g>
<!-- PlBaseComponent&#45;&gt;PlCoreModule -->
<g id="edge2" class="edge">
<title>PlBaseComponent&#45;&gt;PlCoreModule</title>
<path fill="none" stroke="#000000" d="M597.5377,-122.0225C597.5377,-139.3734 597.5377,-163 597.5377,-163 597.5377,-163 596.9433,-163 596.9433,-163"/>
<polygon fill="#000000" stroke="#000000" points="601.5943,-159.5002 591.5942,-163 601.5941,-166.5002 601.5943,-159.5002"/>
</g>
<!-- PlBaseComponent  -->
<g id="node4" class="node">
<title>PlBaseComponent </title>
<polygon fill="#fb8072" stroke="#000000" points="603.7163,-252 480.2837,-252 480.2837,-216 603.7163,-216 603.7163,-252"/>
<text text-anchor="middle" x="542" y="-229.8" font-family="Times,serif" font-size="14.00" fill="#000000">PlBaseComponent </text>
</g>
<!-- PlCoreModule&#45;&gt;PlBaseComponent  -->
<g id="edge3" class="edge">
<title>PlCoreModule&#45;&gt;PlBaseComponent </title>
<path fill="none" stroke="#000000" stroke-dasharray="5,2" d="M542,-187.1061C542,-187.1061 542,-205.991 542,-205.991"/>
<polygon fill="#000000" stroke="#000000" points="538.5001,-205.9909 542,-215.991 545.5001,-205.991 538.5001,-205.9909"/>
</g>
<!-- PlAmbientModeLoaderService -->
<g id="node5" class="node">
<title>PlAmbientModeLoaderService</title>
<ellipse fill="#fdb462" stroke="#000000" cx="434" cy="-104" rx="131.9216" ry="18"/>
<text text-anchor="middle" x="434" y="-99.8" font-family="Times,serif" font-size="14.00" fill="#000000">PlAmbientModeLoaderService</text>
</g>
<!-- PlAmbientModeLoaderService&#45;&gt;PlCoreModule -->
<g id="edge4" class="edge">
<title>PlAmbientModeLoaderService&#45;&gt;PlCoreModule</title>
<path fill="none" stroke="#000000" d="M529.2466,-116.5327C529.2466,-116.5327 529.2466,-140.8507 529.2466,-140.8507"/>
<polygon fill="#000000" stroke="#000000" points="525.7467,-140.8506 529.2466,-150.8507 532.7467,-140.8507 525.7467,-140.8506"/>
</g>
<!-- PlHttpInterceptorMockService -->
<g id="node6" class="node">
<title>PlHttpInterceptorMockService</title>
<ellipse fill="#fdb462" stroke="#000000" cx="154" cy="-104" rx="130.1921" ry="18"/>
<text text-anchor="middle" x="154" y="-99.8" font-family="Times,serif" font-size="14.00" fill="#000000">PlHttpInterceptorMockService</text>
</g>
<!-- PlHttpInterceptorMockService&#45;&gt;PlCoreModule -->
<g id="edge5" class="edge">
<title>PlHttpInterceptorMockService&#45;&gt;PlCoreModule</title>
<path fill="none" stroke="#000000" d="M154,-122.1061C154,-141.3391 154,-169 154,-169 154,-169 482.4654,-169 482.4654,-169"/>
<polygon fill="#000000" stroke="#000000" points="482.4655,-172.5001 492.4654,-169 482.4654,-165.5001 482.4655,-172.5001"/>
</g>
</g>
</svg>
